<?xml version="1.0" encoding="UTF-8"?> <svg xmlns="http://www.w3.org/2000/svg" xmlns:xlink="http://www.w3.org/1999/xlink" width="40px" height="40px" viewBox="0 0 40 40" version="1.1"><title>Fill 1</title><g id="Page-1" stroke="none" stroke-width="1" fill="none" fill-rule="evenodd"><g id="3-Fruta" transform="translate(-669.000000, -2390.000000)" fill="#220252"><g id="Txt" transform="translate(669.000000, 1982.000000)"><path d="M18.150692,441.399748 C16.4280263,441.399748 14.9347194,440.353608 14.3241961,438.816575 C14.6179073,438.758823 14.9000681,438.671369 15.1756286,438.570716 C15.2309057,438.550915 15.2870078,438.531114 15.3422849,438.509663 C15.6095951,438.402409 15.8670049,438.277829 16.1136893,438.134274 C16.158241,438.107873 16.1994926,438.079822 16.2423942,438.052596 C16.4783532,437.906565 16.7044119,437.745684 16.9164449,437.566652 C16.9345956,437.550977 16.9552214,437.537776 16.9733721,437.522101 C17.1936555,437.331518 17.3949632,437.121135 17.5838954,436.900027 C17.6218468,436.855475 17.6589732,436.810923 17.6960997,436.765547 C17.8594559,436.561764 18.0153868,436.349731 18.150692,436.123672 C18.2859972,436.349731 18.4419281,436.560939 18.6052843,436.764722 C18.6424107,436.810923 18.6795372,436.855475 18.7174886,436.900027 C18.9072458,437.121135 19.1077285,437.331518 19.3280119,437.522101 C19.3461626,437.537776 19.3667884,437.550977 19.3849391,437.566652 C19.5969721,437.745684 19.8230308,437.906565 20.0589897,438.052596 C20.1018914,438.079822 20.143143,438.107873 20.1876947,438.134274 C20.4343791,438.277829 20.6917889,438.402409 20.9590991,438.509663 C21.0143762,438.531114 21.0704783,438.550915 21.1257554,438.570716 C21.4013159,438.671369 21.6834767,438.758823 21.9771879,438.816575 C21.3666646,440.353608 19.8733577,441.399748 18.150692,441.399748 L18.150692,441.399748 Z M32.5887424,423.249056 C32.5375905,423.249056 32.4880886,423.243281 32.4369367,423.242456 C31.8635398,422.042035 30.8867026,421.072623 29.6829817,420.504177 C30.6119671,420.140338 31.5921044,419.948931 32.5887424,419.948931 C34.3485345,419.948931 36.0225234,420.516552 37.482004,421.598993 C36.0225234,422.681435 34.3485345,423.249056 32.5887424,423.249056 L32.5887424,423.249056 Z M31.2818926,426.446053 C31.2728173,426.495555 31.266217,426.545882 31.2563166,426.595384 L31.2439412,426.662211 C31.0352082,427.564796 30.5261638,428.374152 29.7778603,428.960749 L30.7959491,430.259349 C31.685333,429.561372 32.3313326,428.638987 32.6869212,427.603572 C34.3188334,428.165419 35.4763525,429.728853 35.4763525,431.499371 C35.4763525,433.290514 34.3312089,434.866324 32.6266939,435.420745 L31.9146917,435.652579 L32.0763979,436.384382 C32.1424004,436.681393 32.1762267,436.981705 32.1762267,437.274591 C32.1762267,439.549203 30.3256812,441.399748 28.0510694,441.399748 C27.8151105,441.399748 27.5733762,441.376647 27.3118413,441.329621 L26.4752594,441.17864 L26.3490296,442.018522 C26.0478931,444.017573 24.2971763,445.524906 22.2758493,445.524906 C21.2412598,445.524906 20.249572,445.135491 19.4822928,444.428439 L18.7851412,443.784089 L18.2439205,444.565394 C17.4733412,445.682487 16.2044428,446.349937 14.8505662,446.349937 C14.5964565,446.349937 14.3505971,446.319411 14.1088629,446.274859 C14.0469855,446.264134 13.9859332,446.250108 13.9248809,446.236083 C13.7087226,446.186581 13.4975146,446.123053 13.2953819,446.04055 C13.2755811,446.0323 13.2533053,446.026525 13.2343296,446.018274 C13.009921,445.922571 12.7978879,445.803766 12.5965802,445.671761 C12.5545036,445.644535 12.5149021,445.614009 12.4744756,445.585133 C12.3111194,445.469629 12.1560134,445.341749 12.0116329,445.203143 C11.9761566,445.169317 11.9390302,445.137966 11.9043789,445.10249 C11.7410226,444.935833 11.592517,444.755976 11.4596869,444.563744 C11.4250356,444.513417 11.3961595,444.458965 11.3639833,444.406988 C10.9654931,443.772539 10.7254089,443.02836 10.7254089,442.22478 L9.075346,442.22478 C9.075346,442.910381 9.20157581,443.565456 9.42185921,444.175979 C8.812986,444.517542 8.13316008,444.699874 7.42528309,444.699874 C5.15067137,444.699874 3.30012582,442.849329 3.30012582,440.574717 C3.30012582,439.86684 3.48245777,439.187839 3.82402079,438.578141 C4.43454407,438.798424 5.08961904,438.924654 5.77522018,438.924654 L5.77522018,437.274591 C4.9757647,437.274591 4.23488646,437.036157 3.60208733,436.640142 C3.54681022,436.605491 3.48740796,436.575789 3.43378091,436.538663 C3.24319865,436.406658 3.06499185,436.258977 2.89998556,436.097271 C2.86203412,436.061795 2.82903286,436.021368 2.7935565,435.984242 C2.65742631,435.841511 2.53037147,435.688881 2.41651713,435.528 C2.386816,435.485923 2.3554648,435.445496 2.32741373,435.402595 C2.1954087,435.201287 2.0774292,434.990079 1.98172555,434.766495 C1.97347524,434.74587 1.96770002,434.723594 1.95862467,434.702968 C1.87612153,434.50166 1.81341914,434.291277 1.76391725,434.075944 C1.74989171,434.014067 1.73586618,433.953014 1.72514077,433.890312 C1.68058907,433.649403 1.65006291,433.403544 1.65006291,433.149434 C1.65006291,432.014191 2.12363096,430.94165 2.93463688,430.16942 C3.46018192,430.604212 4.05915476,430.960625 4.73073036,431.190809 L5.26782584,429.62985 C4.6531774,429.419467 4.11360683,429.071303 3.67634016,428.629912 L3.6012623,428.548233 C3.58063651,428.525958 3.56248582,428.501207 3.54268506,428.478931 C3.39582947,428.3164 3.2654745,428.143143 3.147495,427.962461 C3.11449374,427.912134 3.08479261,427.860157 3.05426644,427.80818 C2.96433802,427.655549 2.88596003,427.497968 2.81665739,427.337087 C2.78778128,427.27026 2.75890518,427.203432 2.73332921,427.134955 C2.67392694,426.974073 2.62937524,426.807417 2.59059877,426.639936 C2.57492317,426.573108 2.55429738,426.507931 2.54274694,426.440278 C2.50067034,426.205144 2.47509436,425.965885 2.47509436,425.724151 C2.47509436,423.953633 3.63261349,422.390199 5.26370068,421.828352 C5.61021389,422.835716 6.23393767,423.7383 7.08537013,424.432977 L8.12820989,423.154178 C7.40135718,422.561805 6.9063383,421.758225 6.7042056,420.868841 L6.69430522,420.818514 C6.68440484,420.768187 6.67780459,420.717035 6.66872925,420.666708 C6.62417755,420.413423 6.60025163,420.178289 6.60025163,419.948931 C6.60025163,417.654518 8.49534889,415.784997 10.7905864,415.830374 C10.7518099,416.098509 10.7254089,416.369944 10.7254089,416.648805 C10.7254089,417.709795 11.0133449,418.740259 11.5570406,419.628818 L12.9637192,418.767486 C12.5792546,418.137987 12.3754718,417.405359 12.3754718,416.648805 C12.3754718,416.13481 12.4810758,415.648042 12.6543324,415.193449 C12.6889838,415.101871 12.7252852,415.011942 12.7665367,414.923664 C12.8383145,414.768558 12.9191675,414.620052 13.009096,414.476497 C13.0462224,414.417095 13.0800487,414.355217 13.1188252,414.297465 C13.402636,413.890725 13.7565745,413.536786 14.164965,413.254625 C14.2045665,413.227399 14.2474682,413.205123 14.2878947,413.178722 C14.452901,413.073943 14.6253326,412.97989 14.8035394,412.899037 C14.8703669,412.868511 14.9380195,412.84046 15.0064971,412.814059 C15.1748035,412.748056 15.3488852,412.696079 15.5254419,412.652352 C15.5972196,412.635027 15.6673473,412.614401 15.7399501,412.600375 C15.9874595,412.554174 16.2407442,412.523647 16.5006291,412.523647 C18.2711466,412.523647 19.8345812,413.681167 20.3972526,415.312254 C19.3610131,415.667842 18.438628,416.313842 17.7406514,417.204051 L19.0392509,418.22214 C19.6258482,417.473836 20.4352041,416.963967 21.3386135,416.755234 L21.3897655,416.746158 C21.4450426,416.734608 21.5019698,416.727183 21.5588969,416.717282 C21.8113566,416.672731 22.0464905,416.648805 22.2758493,416.648805 C24.550461,416.648805 26.4010065,418.49935 26.4010065,420.773962 L26.4010065,421.598993 L27.226038,421.598993 C29.5006497,421.598993 31.3511953,423.449539 31.3511953,425.724151 C31.3511953,425.954335 31.3272694,426.191119 31.2818926,426.446053 L31.2818926,426.446053 Z M24.7509436,415.411258 C24.7509436,413.65229 25.3185653,411.977477 26.4010065,410.518821 C27.4842728,411.977477 28.0510694,413.65229 28.0510694,415.411258 C28.0510694,416.407071 27.8604872,417.386383 27.4966483,418.315368 C26.9290267,417.109997 25.9596147,416.132335 24.7575439,415.558938 C24.7567188,415.509436 24.7509436,415.461584 24.7509436,415.411258 L24.7509436,415.411258 Z M40,421.598993 L39.3325496,420.989295 C37.404451,419.229503 35.0720871,418.298868 32.5887424,418.298868 C31.920467,418.298868 31.2604418,418.374771 30.6119671,418.511726 C32.7628241,416.151311 34.4244374,413.338779 35.4334509,410.309263 L33.8691913,409.787843 C32.9492812,412.544273 31.4518491,415.111771 29.5105501,417.275829 C29.6318297,416.663655 29.7011324,416.040757 29.7011324,415.411258 C29.7011324,412.928738 28.7704969,410.596374 27.0098798,408.66745 L26.4010065,408 L25.7921333,408.66745 C24.1148444,410.504795 23.2015346,412.70928 23.1173814,415.059794 C22.8426459,415.020193 22.5613101,415.005342 22.2758493,415.005342 L22.2758493,414.998742 C22.2378978,414.998742 22.2015964,415.004517 22.16447,415.005342 C22.1199183,415.006167 22.0761917,415.002042 22.0308149,415.004517 C21.3130376,412.602025 19.0615267,410.873585 16.5006291,410.873585 C16.2473444,410.873585 16.00066,410.895035 15.7564507,410.927212 C15.686323,410.936287 15.6178454,410.947012 15.5493678,410.959388 C15.3563105,410.991564 15.1673783,411.031991 14.9817462,411.083143 C14.9272941,411.097993 14.871192,411.108719 14.8175649,411.125219 C14.6005816,411.191222 14.3901986,411.27125 14.1855908,411.362003 C14.1030877,411.39748 14.0230596,411.438731 13.9422065,411.478333 C13.8126766,411.54351 13.6856218,411.612813 13.561867,411.686241 C13.4752387,411.737392 13.3894355,411.786069 13.3061073,411.842171 C13.1369758,411.955201 12.9736196,412.075655 12.8168636,412.205185 C12.7351855,412.272838 12.6584576,412.347916 12.5800796,412.420519 C12.485201,412.508797 12.3927975,412.598725 12.3045191,412.692779 C12.2327414,412.769507 12.1609636,412.844585 12.0933111,412.925438 C11.9547058,413.088794 11.8235258,413.259576 11.7038962,413.437782 C11.6692449,413.489759 11.6378937,413.545861 11.6048924,413.599488 C11.5017635,413.76367 11.4077099,413.933626 11.3219066,414.109358 C11.3062311,414.140709 11.2864303,414.16876 11.2707547,414.200936 C7.85924963,413.861023 4.95018873,416.583627 4.95018873,419.948931 C4.95018873,420.030609 4.95183879,420.112287 4.95596395,420.193965 C2.55347235,420.911742 0.825031454,423.163253 0.825031454,425.724151 C0.825031454,426.021987 0.849782398,426.317348 0.895159128,426.607759 C0.912484788,426.722439 0.946311078,426.831343 0.971887053,426.943547 C1.00901347,427.115154 1.04201473,427.28841 1.09399171,427.455067 C1.13936844,427.597797 1.20207083,427.733927 1.25734794,427.872533 C1.30849989,427.998762 1.35387662,428.128292 1.41410391,428.251222 C1.49413196,428.415403 1.59066064,428.568859 1.68553926,428.723965 C1.73091599,428.798218 1.76556731,428.876596 1.81424417,428.949199 C0.665800384,430.032465 0,431.548873 0,433.149434 C0,433.367242 0.0148505662,433.58175 0.0379514469,433.792958 C0.0462017614,433.864736 0.0602272962,433.934864 0.0709527051,434.005816 C0.09075346,434.144422 0.114679372,434.281377 0.144380505,434.416682 C0.163356228,434.50166 0.18728214,434.584989 0.209557989,434.669142 C0.241734216,434.784646 0.275560506,434.899326 0.314336984,435.012355 C0.344863148,435.103933 0.377864406,435.193862 0.413340759,435.28214 C0.452942268,435.382794 0.497493967,435.480148 0.542045665,435.576676 C0.585772333,435.67073 0.627848937,435.763959 0.675700761,435.854712 C0.722727554,435.94134 0.773879504,436.024668 0.825031454,436.108822 C0.92486026,436.275478 1.03293938,436.435534 1.14926882,436.591465 C1.20867108,436.672318 1.26559825,436.753996 1.32912567,436.830724 C1.39430316,436.909102 1.46525586,436.981705 1.53455851,437.055958 C1.60716127,437.135986 1.68058907,437.214364 1.75814203,437.290267 C1.82414455,437.353794 1.89344719,437.414846 1.96274983,437.475899 C2.05845348,437.560052 2.15580719,437.640905 2.25728606,437.719283 C2.29276241,437.746509 2.32411361,437.77786 2.36041499,437.804261 C1.89344719,438.649919 1.65006291,439.593755 1.65006291,440.574717 C1.65006291,443.759338 4.24148671,446.349937 7.42528309,446.349937 C8.40624549,446.349937 9.34925644,446.106553 10.1957387,445.639585 C10.2213147,445.674236 10.2518409,445.703937 10.2774168,445.737764 C10.3574449,445.841718 10.439948,445.941547 10.5265763,446.039725 C10.5868036,446.108203 10.6470309,446.17668 10.7097333,446.241858 C10.7839861,446.317761 10.8623641,446.390364 10.9399171,446.462141 C11.016645,446.533094 11.0908978,446.605697 11.1717509,446.672524 C11.2319782,446.722851 11.2971557,446.766578 11.3598581,446.81443 C11.5347648,446.948085 11.7162717,447.071015 11.9052039,447.183219 C11.9835819,447.230246 12.0611348,447.278923 12.1428129,447.322649 C12.2360415,447.372151 12.3325702,447.415878 12.4282738,447.460429 C12.5231524,447.504156 12.617206,447.547058 12.7137347,447.585834 C12.8053132,447.622136 12.8977167,447.655137 12.9909453,447.687313 C13.1014995,447.725265 13.2137038,447.758266 13.3267331,447.789617 C13.4125364,447.812718 13.4975146,447.836644 13.585793,447.855619 C13.7194481,447.886146 13.8555782,447.908422 13.9925335,447.929047 C14.0643112,447.939773 14.1344389,447.953798 14.2070416,447.962049 C14.4190747,447.985149 14.6327579,448 14.8505662,448 C16.4511272,448 17.967535,447.3342 19.0508013,446.185756 C19.9995875,446.828455 21.1183301,447.174969 22.2758493,447.174969 C24.8367469,447.174969 27.0882577,445.446528 27.8060351,443.044036 C31.1061609,443.188417 33.8262896,440.540066 33.8262896,437.274591 C33.8262896,437.093909 33.8172143,436.911577 33.7998886,436.729245 C35.8154405,435.789534 37.1264154,433.768207 37.1264154,431.499371 C37.1264154,428.938473 35.3979745,426.686962 32.995483,425.969185 C32.9996081,425.887507 33.0012582,425.805829 33.0012582,425.724151 C33.0012582,425.437865 32.9748572,425.158179 32.9344306,424.882619 C35.2874203,424.800116 37.4943795,423.885981 39.3325496,422.208692 L40,421.598993 Z M23.0381783,437.274591 C21.3485139,437.25149 19.8882082,436.199575 19.2842852,434.681517 C21.9210857,434.145247 23.9259122,431.798857 23.9259122,429.024277 L22.2758493,429.024277 C22.2758493,431.260937 20.4525298,433.112307 18.2249448,433.149434 L18.0904647,433.149434 C15.8488542,433.112307 14.0255347,431.260937 14.0255347,429.024277 L12.3754718,429.024277 C12.3754718,431.795557 14.3753481,434.140297 17.0179238,434.679867 C16.4123507,436.199575 14.9437947,437.25149 13.2005033,437.274591 C10.9258915,437.274591 9.075346,435.424046 9.075346,433.149434 L7.42528309,433.149434 C7.42528309,436.136048 9.704845,438.600417 12.6147309,438.894953 C13.3184828,441.337871 15.5452427,443.049811 18.150692,443.049811 C20.7561413,443.049811 22.9829012,441.337871 23.6866531,438.894953 C26.596539,438.600417 28.8761009,436.136048 28.8761009,433.149434 L27.226038,433.149434 C27.226038,435.424046 25.3754924,437.274591 23.0381783,437.274591 L23.0381783,437.274591 Z" id="Fill-1"></path></g></g></g></svg> 