<?xml version="1.0" encoding="UTF-8"?> <svg xmlns="http://www.w3.org/2000/svg" xmlns:xlink="http://www.w3.org/1999/xlink" width="103px" height="102px" viewBox="0 0 103 102" version="1.1"><title>Group 3</title><defs><polygon id="path-1" points="-9.09494702e-13 2.27373675e-13 64 2.27373675e-13 64 79 -9.09494702e-13 79"></polygon></defs><g id="Page-1" stroke="none" stroke-width="1" fill="none" fill-rule="evenodd"><g id="2.1--Navegación---¿Por-qué-FreshKampo?" transform="translate(-669.000000, -700.000000)"><g id="Texto" transform="translate(388.000000, 700.960123)"><g id="Group-3" transform="translate(332.579184, 50.457879) rotate(-46.000000) translate(-332.579184, -50.457879) translate(300.579184, 10.957879)"><mask id="mask-2" fill="white"><use xlink:href="#path-1"></use></mask><g id="Clip-2"></g><path d="M8.91123985,59.5415284 C13.7364424,55.6417103 14.1852985,56.0658597 19.6188191,53.9568946 C26.936354,51.11745 36.5099811,50.4988988 44.152346,52.5018265 C45.9536763,52.9731036 47.1112524,53.9097669 49.4145927,54.4811904 C51.983703,55.1174145 58.6338598,58.7815941 60.0512999,61.2263441 C62.6853763,65.7564953 68.0007769,63.847823 58.8760058,69.1320177 C52.538867,72.8020882 51.871489,74.2453743 44.5126121,76.6194328 C39.0731854,78.3749401 38.8664754,79.0229461 32.6061147,78.9993822 C27.231654,78.9758184 18.727013,78.3278123 13.9490584,75.5296045 C11.6161882,74.1629009 2.72175111,67.2704731 2.81624712,64.7137947 C2.85168313,63.8006953 7.6473557,60.5665561 8.91123985,59.5415284 M0.690086871,45.9392927 C-0.508831272,39.8598179 0.0817687982,39.6654161 0.755052878,33.8922715 C1.66457699,26.1161991 5.59797345,17.3798996 10.9547161,11.5831911 C12.2186002,10.2164875 13.5828864,9.63917303 15.1775066,7.87188386 C16.9374948,5.91019287 23.3041636,1.76295427 26.1272319,1.65102596 C31.3717605,1.45662415 32.1690706,-4.12211868 32.5824907,6.39325191 C32.8659787,13.6980472 33.8286568,14.9646044 32.4879947,22.5639479 C31.4957865,28.1721455 31.9741726,28.6610955 29.0152662,34.1691468 C26.4815919,38.8995908 21.9280654,46.0924578 17.2091708,48.990812 C14.9117366,50.4046434 4.63529534,55.0113771 2.41463908,53.7389289 C1.62323498,53.2794338 1.00310491,47.5357439 0.690086871,45.9392927" id="Fill-1" fill="#9CC31B" mask="url(#mask-2)"></path></g></g></g></g></svg> 